<svg width="873" height="175" viewBox="0 0 873 175" fill="none" xmlns="http://www.w3.org/2000/svg">
<path d="M0 37.5C0 16.7893 16.7893 0 37.5 0H137.5C158.211 0 175 16.7893 175 37.5V137.5C175 158.211 158.211 175 137.5 175H37.5C16.7893 175 0 158.211 0 137.5V37.5Z" fill="#1A1A1A"/>
<path d="M86.998 49.9993C97.2149 39.7824 113.78 39.7824 123.997 49.9993C134.214 60.2163 134.214 76.7811 123.997 86.9981L86.998 123.997C76.781 134.214 60.2162 134.214 49.9993 123.997C39.7823 113.78 39.7823 97.215 49.9993 86.998L86.998 49.9993Z" fill="url(#paint0_linear_7_11)"/>
<path d="M812.765 148.062C800.348 148.062 789.676 145.523 780.748 140.443C771.872 135.312 765.022 128.18 760.199 119.048C755.428 109.863 753.042 99.2169 753.042 87.1081C753.042 74.9481 755.428 64.3016 760.199 55.1687C765.022 45.9846 771.872 38.8527 780.748 33.7732C789.676 28.6423 800.348 26.0769 812.765 26.0769C825.181 26.0769 835.828 28.6423 844.704 33.7732C853.632 38.8527 860.481 45.9846 865.253 55.1687C870.076 64.3016 872.488 74.9481 872.488 87.1081C872.488 99.2169 870.076 109.863 865.253 119.048C860.481 128.18 853.632 135.312 844.704 140.443C835.828 145.523 825.181 148.062 812.765 148.062ZM812.996 119.663C817.511 119.663 821.333 118.278 824.463 115.507C827.593 112.737 829.979 108.889 831.621 103.963C833.314 99.0373 834.16 93.3421 834.16 86.8773C834.16 80.3098 833.314 74.5633 831.621 69.6377C829.979 64.7121 827.593 60.864 824.463 58.0933C821.333 55.3227 817.511 53.9373 812.996 53.9373C808.327 53.9373 804.376 55.3227 801.143 58.0933C797.962 60.864 795.525 64.7121 793.832 69.6377C792.19 74.5633 791.369 80.3098 791.369 86.8773C791.369 93.3421 792.19 99.0373 793.832 103.963C795.525 108.889 797.962 112.737 801.143 115.507C804.376 118.278 808.327 119.663 812.996 119.663Z" fill="#1E1E1E"/>
<path d="M672.501 145.831V27.6162H709.058V49.1657H710.289C712.444 41.3668 715.959 35.569 720.833 31.7722C725.707 27.9241 731.377 26 737.842 26C739.586 26 741.382 26.1283 743.229 26.3848C745.076 26.59 746.795 26.9235 748.386 27.3853V60.0944C746.59 59.4787 744.23 58.9912 741.305 58.6321C738.432 58.2729 735.866 58.0933 733.609 58.0933C729.145 58.0933 725.117 59.0938 721.526 61.0949C717.985 63.0446 715.189 65.7896 713.137 69.3298C711.136 72.8188 710.135 76.9235 710.135 81.6438V145.831H672.501Z" fill="#1E1E1E"/>
<path d="M658.07 27.6162L617.511 145.83H574.412L533.93 27.6162H573.565L595.346 109.042H596.577L618.435 27.6162H658.07Z" fill="#1E1E1E"/>
<path d="M453.966 147.832C446.423 147.832 439.728 146.574 433.879 144.06C428.081 141.495 423.489 137.647 420.102 132.516C416.767 127.334 415.1 120.843 415.1 113.044C415.1 106.477 416.254 100.936 418.563 96.4206C420.872 91.9055 424.053 88.2369 428.106 85.415C432.16 82.593 436.829 80.4637 442.114 79.0271C447.398 77.5392 453.042 76.5386 459.045 76.0256C465.767 75.4099 471.18 74.7685 475.284 74.1015C479.389 73.3832 482.365 72.3827 484.212 71.1C486.11 69.7659 487.06 67.8932 487.06 65.4817V65.0969C487.06 61.1462 485.7 58.0933 482.981 55.9384C480.261 53.7834 476.593 52.7059 471.975 52.7059C466.998 52.7059 462.996 53.7834 459.969 55.9384C456.942 58.0933 455.018 61.0692 454.197 64.866L419.487 63.6346C420.513 56.4514 423.155 50.0379 427.414 44.394C431.724 38.6988 437.624 34.235 445.115 31.0025C452.657 27.7188 461.713 26.0769 472.283 26.0769C479.825 26.0769 486.777 26.9748 493.14 28.7706C499.502 30.5151 505.043 33.0805 509.764 36.4669C514.484 39.8019 518.127 43.9066 520.692 48.7808C523.309 53.6551 524.617 59.2221 524.617 65.4817V145.83H489.215V129.361H488.291C486.187 133.363 483.494 136.749 480.21 139.52C476.978 142.29 473.155 144.368 468.743 145.754C464.381 147.139 459.456 147.832 453.966 147.832ZM465.587 123.204C469.64 123.204 473.283 122.383 476.516 120.741C479.8 119.099 482.416 116.841 484.366 113.968C486.316 111.043 487.291 107.657 487.291 103.809V92.5725C486.213 93.1369 484.905 93.65 483.365 94.1117C481.877 94.5735 480.236 95.0096 478.44 95.4201C476.644 95.8306 474.797 96.1897 472.899 96.4976C471 96.8054 469.179 97.0876 467.434 97.3441C463.894 97.9085 460.867 98.7808 458.353 99.9609C455.89 101.141 453.991 102.68 452.657 104.579C451.375 106.426 450.733 108.632 450.733 111.197C450.733 115.097 452.119 118.073 454.889 120.125C457.711 122.177 461.277 123.204 465.587 123.204Z" fill="#1E1E1E"/>
<path d="M220 145.83V27.6162H255.788V49.3196H257.096C259.559 42.1364 263.715 36.4669 269.564 32.3109C275.413 28.1549 282.391 26.0769 290.498 26.0769C298.707 26.0769 305.736 28.1806 311.585 32.3879C317.434 36.5951 321.154 42.239 322.745 49.3196H323.976C326.183 42.2904 330.492 36.6721 336.906 32.4648C343.319 28.2062 350.887 26.0769 359.61 26.0769C370.795 26.0769 379.877 29.6685 386.855 36.8517C393.833 43.9835 397.321 53.7834 397.321 66.2513V145.83H359.687V74.8711C359.687 68.9707 358.173 64.4812 355.146 61.4027C352.119 58.2729 348.194 56.708 343.371 56.708C338.189 56.708 334.11 58.4012 331.134 61.7875C328.209 65.1225 326.747 69.612 326.747 75.2559V145.83H290.575V74.4863C290.575 68.9963 289.087 64.6608 286.111 61.4796C283.135 58.2985 279.21 56.708 274.335 56.708C271.052 56.708 268.153 57.5033 265.639 59.0938C263.125 60.6331 261.149 62.8393 259.713 65.7126C258.327 68.5858 257.635 71.9722 257.635 75.8716V145.83H220Z" fill="#1E1E1E"/>
<defs>
<linearGradient id="paint0_linear_7_11" x1="123.997" y1="49.9993" x2="49" y2="124.25" gradientUnits="userSpaceOnUse">
<stop stop-color="white"/>
<stop offset="1" stop-color="white" stop-opacity="0"/>
</linearGradient>
</defs>
</svg>
