<svg width="175" height="175" viewBox="0 0 175 175" fill="none" xmlns="http://www.w3.org/2000/svg">
<path d="M0 37.5C0 16.7893 16.7893 0 37.5 0H137.5C158.211 0 175 16.7893 175 37.5V137.5C175 158.211 158.211 175 137.5 175H37.5C16.7893 175 0 158.211 0 137.5V37.5Z" fill="#1A1A1A"/>
<path d="M86.998 49.9993C97.2149 39.7824 113.78 39.7824 123.997 49.9993C134.214 60.2163 134.214 76.7811 123.997 86.9981L86.998 123.997C76.781 134.214 60.2162 134.214 49.9993 123.997C39.7823 113.78 39.7823 97.215 49.9993 86.998L86.998 49.9993Z" fill="url(#paint0_linear_7_11)"/>
<defs>
<linearGradient id="paint0_linear_7_11" x1="123.997" y1="49.9993" x2="49" y2="124.25" gradientUnits="userSpaceOnUse">
<stop stop-color="white"/>
<stop offset="1" stop-color="white" stop-opacity="0"/>
</linearGradient>
</defs>
</svg>
